# xmcd
# 
# Track frame offsets:
#     150
#     19718
#     36126
#     57051
#     77512
#     92059
#     103905
#     131135
#     143934
#     169403
#     191932
#     214024
#     227372
# 
# Disc length: 3268
# 
# Revision: 0
# Processed by: cddbd v1.5.1PL0 Copyright (c) Steve Scherf et al.
# Submitted via: BonkEnc v1.0beta3
# 
DISCID=b10cc20d
DTITLE=Boring Blues Band - Rhythm In My Feet
DYEAR=1900
DGENRE=Blues
TTITLE0=Rhythm In My Feet
TTITLE1=Call It .... Love?!
TTITLE2=Way Down South (Saziani Blues)
TTITLE3=Drown In Your Own Lies
TTITLE4=Hole In My Pocket
TTITLE5=T-Babe Jive
TTITLE6=River Deep, Mountain High
TTITLE7=Erve The Verve
TTITLE8=K-Burg City
TTITLE9=Hobo's Love Song
TTITLE10=Jesus Built This Guitar
TTITLE11=Bounce Back Off The Wall
TTITLE12=Triple B
EXTD=
EXTT0=
EXTT1=
EXTT2=
EXTT3=
EXTT4=
EXTT5=
EXTT6=
EXTT7=
EXTT8=
EXTT9=
EXTT10=
EXTT11=
EXTT12=
PLAYORDER=
